<svg width="11" height="10" viewBox="0 0 11 10" fill="none" xmlns="http://www.w3.org/2000/svg">
<path d="M6.6954 0.155172C6.50496 -0.0447928 6.18847 -0.052512 5.98851 0.137931C5.78854 0.328374 5.78082 0.644862 5.97126 0.844828L6.33333 0.5L6.6954 0.155172ZM10.5 4.875L10.8621 5.21983C11.046 5.02672 11.046 4.72328 10.8621 4.53017L10.5 4.875ZM5.97126 8.90517C5.78082 9.10514 5.78854 9.42163 5.98851 9.61207C6.18847 9.80251 6.50496 9.79479 6.6954 9.59483L6.33333 9.25L5.97126 8.90517ZM0.5 4.375H2.98023e-08L0 5.375H0.5L0.5 4.875L0.5 4.375ZM6.33333 0.5L5.97126 0.844828L10.1379 5.21983L10.5 4.875L10.8621 4.53017L6.6954 0.155172L6.33333 0.5ZM10.5 4.875L10.1379 4.53017L5.97126 8.90517L6.33333 9.25L6.6954 9.59483L10.8621 5.21983L10.5 4.875ZM10.5 4.875V4.375L0.5 4.375L0.5 4.875L0.5 5.375L10.5 5.375V4.875Z" fill="#FEAE00"/>
</svg>
