<svg width="32" height="32" viewBox="0 0 32 32" fill="none" xmlns="http://www.w3.org/2000/svg">
<circle cx="16" cy="16" r="15.5" stroke="#FEAE00"></circle>
<path d="M22 11.5C22 12.8807 20.8807 14 19.5 14C18.7873 14 18.1441 13.7035 17.687 13.227L13.9595 15.0908C13.9858 15.2541 14 15.4221 14 15.5938C14 15.7654 13.9858 15.9335 13.9595 16.0967L17.687 17.9605C18.1441 17.484 18.7873 17.1875 19.5 17.1875C20.8807 17.1875 22 18.3068 22 19.6875C22 21.0682 20.8807 22.1875 19.5 22.1875C18.1193 22.1875 17 21.0682 17 19.6875C17 19.5158 17.0142 19.3478 17.0405 19.1845L13.313 17.3208C12.8559 17.7973 12.2127 18.0938 11.5 18.0938C10.1193 18.0938 9 16.9745 9 15.5938C9 14.213 10.1193 13.0938 11.5 13.0938C12.2127 13.0938 12.8559 13.3902 13.313 13.8667L17.0405 12.003C17.0142 11.8397 17 11.6716 17 11.5C17 10.1193 18.1193 9 19.5 9C20.8807 9 22 10.1193 22 11.5Z" fill="#FEAE00"></path>
</svg>
