<svg width="24" height="24" viewBox="0 0 24 24" fill="none" xmlns="http://www.w3.org/2000/svg">
<circle cx="12" cy="12" r="11.6996" stroke="white" stroke-width="0.600895"></circle>
<path d="M16.5 8.625C16.5 9.66053 15.6605 10.5 14.625 10.5C14.0905 10.5 13.6081 10.2776 13.2653 9.92033L10.4697 11.3181C10.4894 11.4406 10.5 11.5667 10.5 11.6953C10.5 11.8240 10.4894 11.9501 10.4697 12.0725L13.2653 13.4703C13.6081 13.1131 14.0905 12.8906 14.625 12.8906C15.6605 12.8906 16.5 13.7301 16.5 14.7656C16.5 15.8011 15.6605 16.6406 14.625 16.6406C13.5895 16.6406 12.75 15.8011 12.75 14.7656C12.75 14.6369 12.7606 14.5109 12.7803 14.3884L9.98472 12.9906C9.64193 13.3479 9.15953 13.5703 8.625 13.5703C7.58947 13.5703 6.75 12.7309 6.75 11.6953C6.75 10.6598 7.58947 9.82031 8.625 9.82031C9.15953 9.82031 9.64193 10.0427 9.98472 10.4000L12.7803 9.00224C12.7606 8.87977 12.75 8.75370 12.75 8.625C12.75 7.58947 13.5895 6.75 14.625 6.75C15.6605 6.75 16.5 7.58947 16.5 8.625Z" fill="white"></path>
</svg>
