<svg width="40" height="40" viewBox="0 0 40 40" fill="none" xmlns="http://www.w3.org/2000/svg">
<circle cx="20" cy="20" r="19.5" stroke="#FEAE00"/>
<path d="M25.316 13.7328L27.0856 18.9554H27.9374V19.9999H27.7556C27.6453 20.3101 27.4909 20.5929 27.2924 20.8487C27.0939 21.1043 26.8624 21.3247 26.5978 21.5096C26.3332 21.6946 26.0466 21.836 25.7378 21.9339C25.4291 22.0319 25.1038 22.0835 24.7621 22.089C24.4258 22.089 24.1033 22.04 23.7945 21.9421C23.4858 21.8442 23.1991 21.7028 22.9345 21.5178C22.6699 21.3328 22.4384 21.1124 22.2399 20.8568C22.0415 20.6011 21.8843 20.3154 21.7685 19.9999H21.5867V18.9554H22.4384L24.208 13.7328H20.5281V25.2389C21.4489 25.2988 22.3199 25.5028 23.1413 25.8509C23.9626 26.1991 24.7152 26.686 25.3987 27.3117H26.8789V28.3562H13.119V27.3117H14.5992C15.2772 26.6914 16.027 26.2073 16.8484 25.859C17.6698 25.5108 18.5436 25.3041 19.4698 25.2389V13.7328H15.79L17.5596 18.9554H18.4113V19.9999H18.2295C18.1192 20.3101 17.9648 20.5929 17.7663 20.8487C17.5678 21.1043 17.3363 21.3247 17.0717 21.5096C16.8071 21.6946 16.5205 21.836 16.2117 21.9339C15.9029 22.0319 15.5777 22.0835 15.236 22.089C14.8997 22.089 14.5771 22.04 14.2684 21.9421C13.9597 21.8442 13.673 21.7028 13.4084 21.5178C13.1438 21.3328 12.9123 21.1124 12.7138 20.8568C12.5153 20.6011 12.3582 20.3154 12.2424 19.9999H12.0606V18.9554H12.9123L14.6819 13.7328H12.0606V12.6883H19.4698V11.6437H20.5281V12.6883H27.9374V13.7328H25.316ZM15.236 15.3812L14.0288 18.9554H16.4432L15.236 15.3812ZM15.236 21.0444C15.616 21.0444 15.9689 20.952 16.2941 20.7669C16.6194 20.582 16.8784 20.3263 17.0717 19.9999H13.4002C13.5935 20.3263 13.8526 20.582 14.1778 20.7669C14.503 20.952 14.856 21.0444 15.236 21.0444ZM23.6694 27.3117C23.118 26.9688 22.5311 26.7104 21.9079 26.5363C21.2848 26.3622 20.6481 26.2724 19.9981 26.2671C19.348 26.2671 18.7113 26.3541 18.0882 26.5283C17.4651 26.7022 16.8784 26.9634 16.327 27.3117H23.6694ZM24.7621 15.3812L23.555 18.9554H25.9693L24.7621 15.3812ZM24.7621 21.0444C25.1421 21.0444 25.495 20.952 25.8203 20.7669C26.1456 20.582 26.4046 20.3263 26.5978 19.9999H22.9263C23.1196 20.3263 23.3787 20.582 23.7039 20.7669C24.0291 20.952 24.382 21.0444 24.7621 21.0444Z" fill="#FEAE00"/>
</svg>
