<svg width="11" height="11" viewBox="0 0 11 11" fill="none" xmlns="http://www.w3.org/2000/svg">
<path d="M1.37109 4.3401H-0.00090624V3.4301H1.58109C1.89843 2.41277 2.49109 1.5821 3.35909 0.938101C4.21776 0.312768 5.22576 0.000101209 6.38309 0.000101209C7.33509 0.000101209 8.20309 0.228768 8.98709 0.686101C9.77109 1.1341 10.3778 1.75477 10.8071 2.5481L9.58909 3.0101C9.25309 2.4501 8.80509 2.01143 8.24509 1.6941C7.68509 1.37677 7.06443 1.2181 6.38309 1.2181C5.61776 1.2181 4.93176 1.41877 4.32509 1.8201C3.71843 2.2121 3.26109 2.74877 2.95309 3.4301H6.71909V4.3401H2.68709C2.60309 4.8161 2.60309 5.2921 2.68709 5.7681H6.71909V6.6781H2.95309C3.26109 7.35943 3.71843 7.90077 4.32509 8.3021C4.93176 8.6941 5.61776 8.8901 6.38309 8.8901C7.06443 8.8901 7.68509 8.73143 8.24509 8.4141C8.80509 8.09677 9.25309 7.6581 9.58909 7.0981L10.8071 7.5601C10.3778 8.35343 9.77109 8.97877 8.98709 9.4361C8.20309 9.8841 7.33509 10.1081 6.38309 10.1081C5.22576 10.1081 4.21776 9.79543 3.35909 9.1701C2.49109 8.5261 1.89843 7.69543 1.58109 6.6781H-0.00090624V5.7681H1.37109C1.31509 5.2921 1.31509 4.8161 1.37109 4.3401Z" fill="#FEAE00"></path>
</svg>
