<svg width="24" height="24" viewBox="0 0 24 24" fill="none" xmlns="http://www.w3.org/2000/svg">
<g clip-path="url(#clip0_670_5089)">
<path d="M5.08106 12H1.26172" stroke="#FEAE00" stroke-linecap="square" stroke-linejoin="round"></path>
<path d="M22.7402 12H10.0078" stroke="#FEAE00" stroke-linecap="square" stroke-linejoin="round"></path>
<path d="M13.9951 20.1172H1.26172" stroke="#FEAE00" stroke-linecap="square" stroke-linejoin="round"></path>
<path d="M22.7364 20.1172H18.918" stroke="#FEAE00" stroke-linecap="square" stroke-linejoin="round"></path>
<path d="M13.9951 4.02344H1.26172" stroke="#FEAE00" stroke-linecap="square" stroke-linejoin="round"></path>
<path d="M22.7364 4.02344H18.918" stroke="#FEAE00" stroke-linecap="square" stroke-linejoin="round"></path>
<path d="M5.07813 12.0021C5.07812 12.3255 5.14183 12.6458 5.26561 12.9446C5.38939 13.2434 5.57081 13.515 5.79952 13.7437C6.02823 13.9724 6.29975 14.1538 6.59858 14.2776C6.8974 14.4014 7.21768 14.4651 7.54113 14.4651C7.86457 14.4651 8.18485 14.4014 8.48367 14.2776C8.7825 14.1538 9.05402 13.9724 9.28273 13.7437C9.51144 13.515 9.69286 13.2434 9.81664 12.9446C9.94042 12.6458 10.0041 12.3255 10.0041 12.0021C10.0041 11.6786 9.94042 11.3583 9.81664 11.0595C9.69286 10.7607 9.51144 10.4892 9.28273 10.2605C9.05402 10.0317 8.7825 9.85032 8.48367 9.72655C8.18485 9.60277 7.86457 9.53906 7.54113 9.53906C7.21768 9.53906 6.8974 9.60277 6.59858 9.72655C6.29975 9.85032 6.02823 10.0317 5.79952 10.2605C5.57081 10.4892 5.38939 10.7607 5.26561 11.0595C5.14183 11.3583 5.07812 11.6786 5.07813 12.0021Z" stroke="#FEAE00" stroke-linecap="square"></path>
<path d="M13.9922 20.1192C13.9922 20.7725 14.2517 21.399 14.7136 21.8609C15.1755 22.3228 15.802 22.5823 16.4552 22.5823C17.1084 22.5823 17.7349 22.3228 18.1968 21.8609C18.6587 21.399 18.9182 20.7725 18.9182 20.1192C18.9182 19.466 18.6587 18.8395 18.1968 18.3776C17.7349 17.9157 17.1084 17.6563 16.4552 17.6562C15.802 17.6563 15.1755 17.9157 14.7136 18.3776C14.2517 18.8395 13.9922 19.466 13.9922 20.1192Z" stroke="#FEAE00" stroke-linecap="square"></path>
<path d="M13.9922 3.88487C13.9922 4.5381 14.2517 5.16458 14.7136 5.62648C15.1755 6.08838 15.802 6.34787 16.4552 6.34787C17.1084 6.34787 17.7349 6.08838 18.1968 5.62648C18.6587 5.16458 18.9182 4.5381 18.9182 3.88487C18.9182 3.23165 18.6587 2.60517 18.1968 2.14327C17.7349 1.68137 17.1084 1.42188 16.4552 1.42188C15.802 1.42188 15.1755 1.68137 14.7136 2.14327C14.2517 2.60517 13.9922 3.23165 13.9922 3.88487Z" stroke="#FEAE00" stroke-linecap="square"></path>
</g>
<defs>
<clipPath id="clip0_670_5089">
<rect width="24" height="24" fill="white"></rect>
</clipPath>
</defs>
</svg>
